<?xml version="1.0" encoding="UTF-8"?>
<svg width=".41667in" height=".41667in" fill="none" version="1.1" viewBox="0 0 40 40" xmlns="http://www.w3.org/2000/svg" xmlns:cc="http://creativecommons.org/ns#" xmlns:dc="http://purl.org/dc/elements/1.1/" xmlns:rdf="http://www.w3.org/1999/02/22-rdf-syntax-ns#">
 <metadata>
  <rdf:RDF>
   <cc:Work rdf:about="">
    <dc:format>image/svg+xml</dc:format>
    <dc:type rdf:resource="http://purl.org/dc/dcmitype/StillImage"/>
    <dc:title/>
   </cc:Work>
  </rdf:RDF>
 </metadata>
 <circle cx="20" cy="20" r="20" fill="#363636" stroke-width="1.5385"/>
 <path d="m19.639 15.907-0.36062-0.27031c-0.12015-0.09015-0.27031-0.06015-0.36046 0.06-1.1718 1.7128-1.8329 3.6658-1.8329 5.6491 0 2.0132 0.66108 3.9663 1.8329 5.6791 0.09015 0.12015 0.24031 0.15031 0.36046 0.06015l0.36062-0.27046c0.12031-0.09015 0.15031-0.21031 0.06015-0.33062-1.0817-1.5323-1.6526-3.3052-1.6526-5.1382 0-1.8029 0.57092-3.5757 1.6526-5.1082 0.09015-0.12015 0.06015-0.24046-0.06015-0.33062zm-2.524-2.0132c0-0.1202-0.12015-0.24038-0.24031-0.24038h-1.6828c-1.3522 0-2.4038 1.0817-2.4038 2.4038v2.4038h-2.1635c-0.15025 0-0.24038 0.12015-0.24038 0.24031v0.48092c0 0.15015 0.09014 0.24031 0.24038 0.24031h2.1635v4.3269c0 0.81123-0.66106 1.4423-1.4423 1.4423h-0.72115c-0.15025 0-0.24038 0.12015-0.24038 0.24031v0.48092c0 0.15015 0.09014 0.24031 0.24038 0.24031h0.72115c1.3221 0 2.4038-1.0517 2.4038-2.4038v-4.3269h2.1635c0.12015 0 0.24031-0.09015 0.24031-0.24031v-0.48092c0-0.12015-0.12015-0.24031-0.24031-0.24031h-2.1635v-2.4038c0-0.78125 0.63102-1.4423 1.4423-1.4423h1.6828c0.12015 0 0.24031-0.09014 0.24031-0.24038zm10.667 1.8028c-0.09015-0.12015-0.24046-0.15015-0.36062-0.06l-0.36062 0.27031c-0.12015 0.09015-0.15015 0.21046-0.06 0.33062 1.0817 1.5325 1.6526 3.3052 1.6526 5.1082 0 1.8329-0.57092 3.6058-1.6526 5.1382-0.06015 0.12031-0.06015 0.24046 0.06 0.33062l0.36062 0.27046c0.12015 0.09015 0.27046 0.06 0.36062-0.06015 1.1718-1.7128 1.8329-3.6658 1.8329-5.6791 0-1.9832-0.66108-3.9363-1.8329-5.6491zm-2.1034 3.6658-0.33046-0.33046c-0.09015-0.09015-0.24046-0.09015-0.33062 0l-1.6526 1.6526-1.6526-1.6526c-0.09015-0.09015-0.27046-0.09015-0.36062 0l-0.33046 0.33046c-0.09015 0.09015-0.09015 0.24046 0 0.33062l1.6526 1.6526-1.6526 1.6526c-0.09015 0.09015-0.09015 0.27046 0 0.36062l0.33046 0.33046c0.09015 0.09015 0.27046 0.09015 0.36062 0l1.6526-1.6526 1.6526 1.6526c0.09015 0.09015 0.24046 0.09015 0.33062 0l0.33046-0.33046c0.09015-0.09015 0.09015-0.27046 0-0.36062l-1.6526-1.6526 1.6526-1.6526c0.09015-0.09015 0.09015-0.24046 0-0.33062z" fill="#fff" stroke-width="1.5385"/>
</svg>
