<svg width="20" height="21" viewBox="0 0 20 21" fill="none" xmlns="http://www.w3.org/2000/svg">
<path d="M10 13.7812C9.375 13.7812 8.90625 14.2891 8.90625 14.875C8.90625 15.5 9.375 15.9688 10 15.9688C10.5859 15.9688 11.0938 15.5 11.0938 14.875C11.0938 14.2891 10.5859 13.7812 10 13.7812ZM10.2734 12.8438C10.5469 12.8438 10.7422 12.6484 10.7422 12.375C10.7422 10.6953 13.7891 10.8125 13.7891 8.19531C13.7891 6.20312 11.9922 5.03125 9.96094 5.03125C8.20312 5.03125 7.22656 5.73438 6.40625 6.78906C6.25 7.02344 6.28906 7.29688 6.52344 7.45312L7.03125 7.84375C7.22656 7.96094 7.5 7.92188 7.65625 7.72656C8.24219 6.98438 8.82812 6.59375 9.96094 6.59375C11.5234 6.59375 12.2266 7.41406 12.2266 8.19531C12.2266 9.875 9.17969 9.64062 9.17969 12.375C9.17969 12.6484 9.41406 12.8438 9.64844 12.8438H10.2734ZM10 2.0625C14.6094 2.0625 18.4375 5.85156 18.4375 10.5C18.4375 15.1875 14.6484 18.9375 10 18.9375C5.3125 18.9375 1.5625 15.1875 1.5625 10.5C1.5625 5.85156 5.3125 2.0625 10 2.0625ZM10 0.8125C4.64844 0.8125 0.3125 5.1875 0.3125 10.5C0.3125 15.8516 4.64844 20.1875 10 20.1875C15.3125 20.1875 19.6875 15.8516 19.6875 10.5C19.6875 5.1875 15.3125 0.8125 10 0.8125Z" fill="white"/>
</svg>

