<?xml version="1.0" encoding="UTF-8" standalone="no"?>
<svg
   xmlns="http://www.w3.org/2000/svg"
   viewBox="0 0 396.41183 53.791842"
   width="396.41183"
   height="53.791843">
  <defs
     id="defs4">
    <style
       id="style2">.cls-1{fill:#f7cc31;}</style>
  </defs>
  <title
     id="title6">pixelcities_elements</title>
  <path
     class="cls-1"
     d="m 225.86184,12.471843 a 0.79,0.79 0 0 1 -0.78,-0.87 V 3.0318432 a 0.78,0.78 0 0 1 0.78,-0.87 h 9.34 a 0.78,0.78 0 0 1 0.77,0.87 v 8.5699998 a 0.78,0.78 0 0 1 -0.77,0.87 z m 83.85,0 a 0.78,0.78 0 0 1 -0.78,-0.87 V 3.0318432 a 0.78,0.78 0 0 1 0.78,-0.87 h 9.33 a 0.78,0.78 0 0 1 0.78,0.87 v 8.5699998 a 0.78,0.78 0 0 1 -0.78,0.87 z m -249.219997,0 a 0.78,0.78 0 0 1 -0.78,-0.87 V 3.0318432 a 0.78,0.78 0 0 1 0.78,-0.87 h 9.33 a 0.78,0.78 0 0 1 0.78,0.87 v 8.5699998 a 0.78,0.78 0 0 1 -0.78,0.87 z"
     id="path8" />
  <path
     class="cls-1"
     d="m 100.99184,52.891843 a 1.29,1.29 0 0 1 -1.159997,-0.7 l -6.77,-10.27 h -0.08 l -6.69,10.27 a 1.51,1.51 0 0 1 -1.24,0.7 h -10 c -0.63,0 -0.78,-0.39 -0.55,-0.78 l 12.68,-18.74 -11.78,-17.35 c -0.23,-0.39 -0.07,-0.78 0.55,-0.78 h 10.11 a 1.46,1.46 0 0 1 1.32,0.7 l 5.68,8.87 h 0.08 l 5.72,-8.87 a 1.51,1.51 0 0 1 1.249997,-0.7 h 10 c 0.7,0 0.86,0.39 0.62,0.78 l -11.679997,17.35 12.679997,18.74 c 0.23,0.39 0.07,0.78 -0.63,0.78 z"
     id="path10" />
  <path
     class="cls-1"
     d="m 120.40184,43.011843 a 27.09,27.09 0 0 1 -1.32,-8.94 27.88,27.88 0 0 1 1.24,-9 c 2.18,-6.76 8.17,-10.65 16.18,-10.65 8.32,0 14.08,4 16.26,10.58 0.78,2.48 1.24,5.21 1.24,11.58 a 0.76,0.76 0 0 1 -0.85,0.78 h -22.79 a 0.42,0.42 0 0 0 -0.47,0.47 8.1,8.1 0 0 0 0.47,2.1 c 1,3.27 3.89,5 7.77,5 a 12.12,12.12 0 0 0 8.64,-3.35 c 0.39,-0.31 0.78,-0.39 1.09,0 l 5.13,4.82 a 0.7,0.7 0 0 1 0.08,1.09 c -3.58,3.82 -9.1,6.3 -16,6.3 -8.58,-0.08 -14.49,-4.01 -16.67,-10.78 z m 22.4,-12.91 a 0.42,0.42 0 0 0 0.47,-0.47 9.48,9.48 0 0 0 -0.39,-2.8 c -0.86,-2.56 -3.19,-4.12 -6.3,-4.12 -3.11,0 -5.44,1.56 -6.3,4.12 a 9.48,9.48 0 0 0 -0.39,2.8 0.42,0.42 0 0 0 0.47,0.47 z"
     id="path12" />
  <path
     class="cls-1"
     d="m 177.76184,53.351843 c -8.32,0 -11.66,-3.65 -11.66,-12 V 0.78184323 a 0.73,0.73 0 0 1 0.78,-0.78 h 9.33 a 0.73,0.73 0 0 1 0.78,0.78 V 40.521843 c 0,2.57 1,3.58 3.26,3.58 h 1.61 a 0.74,0.74 0 0 1 0.78,0.78 v 7.7 a 0.74,0.74 0 0 1 -0.78,0.77 z"
     id="path14" />
  <path
     class="cls-1"
     d="m 193.52184,43.091843 a 27.51,27.51 0 0 1 -1.17,-9 27.54,27.54 0 0 1 1.17,-9 c 2.25,-7 8.32,-10.65 16.25,-10.65 6.46,0 11.51,3 14.23,7.08 a 0.76,0.76 0 0 1 -0.15,1.09 l -6.77,4.43 a 0.77,0.77 0 0 1 -1.16,-0.16 c -1.64,-2.25 -3.27,-3.26 -6,-3.26 -2.88,0 -5,1.32 -5.84,4 a 19.55,19.55 0 0 0 -0.7,6.46 19.45,19.45 0 0 0 0.7,6.45 c 0.86,2.72 3,4 5.84,4 2.72,0 4.35,-1 6,-3.26 a 0.77,0.77 0 0 1 1.16,-0.16 l 6.78,4.47 a 0.75,0.75 0 0 1 0.15,1.09 c -2.72,4.12 -7.77,7.07 -14.23,7.07 -7.92,-0.03 -14.01,-3.65 -16.26,-10.65 z"
     id="path16" />
  <path
     class="cls-1"
     d="m 238.47184,52.891843 a 0.74,0.74 0 0 1 -0.78,-0.78 v -36.09 a 0.74,0.74 0 0 1 0.78,-0.78 h 9.39 a 0.73,0.73 0 0 1 0.77,0.78 v 36.09 a 0.73,0.73 0 0 1 -0.77,0.78 z"
     id="path18" />
  <path
     class="cls-1"
     d="m 277.20184,53.351843 c -8.71,0 -12,-3.88 -12,-12.52 v -17.12 a 0.41,0.41 0 0 0 -0.47,-0.46 h -2.33 a 0.74,0.74 0 0 1 -0.78,-0.78 v -6.45 a 0.73,0.73 0 0 1 0.78,-0.78 h 2.33 a 0.41,0.41 0 0 0 0.47,-0.46 V 4.7118432 a 0.73,0.73 0 0 1 0.77,-0.78 h 9.26 a 0.73,0.73 0 0 1 0.78,0.78 V 14.781843 a 0.4,0.4 0 0 0 0.46,0.46 h 4.83 a 0.73,0.73 0 0 1 0.77,0.78 v 6.46 a 0.74,0.74 0 0 1 -0.77,0.78 h -4.83 a 0.4,0.4 0 0 0 -0.46,0.46 v 16.65 c 0,2.8 0.93,3.73 3.42,3.73 h 1.87 a 0.73,0.73 0 0 1 0.77,0.78 v 7.7 a 0.73,0.73 0 0 1 -0.77,0.77 z"
     id="path20" />
  <path
     class="cls-1"
     d="m 297.04184,52.891843 a 0.73,0.73 0 0 1 -0.78,-0.78 v -36.09 a 0.73,0.73 0 0 1 0.78,-0.78 h 9.33 a 0.73,0.73 0 0 1 0.78,0.78 v 36.09 a 0.73,0.73 0 0 1 -0.78,0.78 z"
     id="path22" />
  <path
     class="cls-1"
     d="m 320.72184,43.011843 a 27.09,27.09 0 0 1 -1.32,-8.94 27.88,27.88 0 0 1 1.24,-9 c 2.22,-6.79 8.22,-10.68 16.22,-10.68 8.32,0 14.08,4 16.26,10.58 0.78,2.48 1.24,5.21 1.24,11.58 a 0.76,0.76 0 0 1 -0.85,0.78 h -22.83 a 0.42,0.42 0 0 0 -0.47,0.47 8.1,8.1 0 0 0 0.47,2.1 c 1,3.27 3.89,5 7.77,5 a 12.12,12.12 0 0 0 8.64,-3.35 c 0.39,-0.31 0.78,-0.39 1.09,0 l 5.13,4.82 a 0.7,0.7 0 0 1 0.08,1.09 c -3.58,3.82 -9.1,6.3 -16,6.3 -8.53,-0.05 -14.53,-3.98 -16.67,-10.75 z m 22.4,-12.91 a 0.42,0.42 0 0 0 0.47,-0.47 9.48,9.48 0 0 0 -0.39,-2.8 c -0.86,-2.56 -3.19,-4.12 -6.3,-4.12 -3.11,0 -5.44,1.56 -6.3,4.12 a 9.48,9.48 0 0 0 -0.39,2.8 0.42,0.42 0 0 0 0.47,0.47 z"
     id="path24" />
  <path
     class="cls-1"
     d="m 362.49184,47.911843 a 0.76,0.76 0 0 1 0,-1.09 l 5.06,-5.68 a 0.75,0.75 0 0 1 1.09,0 19.62,19.62 0 0 0 11.51,4.13 c 4,0 5.83,-1.48 5.83,-3.58 0,-1.79 -1,-2.88 -5.37,-3.27 l -4.2,-0.47 c -7.93,-0.77 -12.28,-4.74 -12.28,-11.51 0,-7.38 5.67,-12 15.47,-12 a 25.53,25.53 0 0 1 15.26,4.62 0.84,0.84 0 0 1 0.08,1.16 l -4.36,5.37 a 0.75,0.75 0 0 1 -1.09,0.15 19.74,19.74 0 0 0 -10.19,-3 c -3.19,0 -4.74,1.25 -4.74,3.11 0,1.86 0.93,2.72 5.21,3.11 l 4.12,0.47 c 8.87,0.86 12.52,5.13 12.52,11.43 -0.07,7.7 -6.06,12.91 -16.8,12.91 -7.86,-0.06 -13.54,-2.75 -17.12,-5.86 z"
     id="path26" />
  <path
     class="cls-1"
     d="m 0.78184323,52.891843 a 0.73,0.73 0 0 1 -0.78,-0.78 V 0.78184323 a 0.73,0.73 0 0 1 0.78,-0.78 H 21.311843 c 11.51,0 18.43,6.91999997 18.43,16.99999977 0,10.08 -7,17 -18.43,17 h -9.45 a 0.41,0.41 0 0 0 -0.47,0.46 v 17.65 a 0.73,0.73 0 0 1 -0.78,0.78 z m 27.52999977,-35.86 c 0,-4.27 -2.88,-7.1499998 -7.7,-7.1499998 h -8.75 a 0.41,0.41 0 0 0 -0.47,0.4599998 v 13.3 a 0.41,0.41 0 0 0 0.47,0.47 h 8.71 c 4.86,0 7.74,-2.8 7.74,-7.08 z"
     id="path28" />
  <rect
     class="cls-1"
     x="47.721844"
     y="15.241844"
     width="10.89"
     height="37.639999"
     rx="0.77999997"
     id="rect30" />
</svg>
