<svg width="20" height="20" viewBox="0 0 20 20" fill="none" xmlns="http://www.w3.org/2000/svg">
<path d="M5.0625 3.15625C4.90625 3 4.6875 3 4.53125 3.15625L4.3125 3.375C4.15625 3.53125 4.15625 3.75 4.3125 3.90625L10.4062 10L4.3125 16.125C4.15625 16.2812 4.15625 16.5 4.3125 16.6562L4.53125 16.875C4.6875 17.0312 4.90625 17.0312 5.0625 16.875L11.6562 10.2812C11.8125 10.125 11.8125 9.90625 11.6562 9.75L5.0625 3.15625ZM8.53125 3.15625L8.3125 3.375C8.15625 3.53125 8.15625 3.75 8.3125 3.90625L14.4062 10L8.3125 16.125C8.15625 16.2812 8.15625 16.5 8.3125 16.6562L8.53125 16.875C8.6875 17.0312 8.90625 17.0312 9.0625 16.875L15.6562 10.2812C15.8125 10.125 15.8125 9.90625 15.6562 9.75L9.0625 3.15625C8.90625 3 8.6875 3 8.53125 3.15625Z" fill="white"/>
</svg>

