<svg width="20" height="20" viewBox="0 0 20 20" fill="none" xmlns="http://www.w3.org/2000/svg">
<path d="M16.0312 8.34375L15.4375 7.5625L13.9375 8.6875L14.5312 9.46875L16.0312 8.34375ZM18 8C18.4062 8 18.7812 7.875 19.0938 7.6875C19.3125 7.53125 19.5 7.34375 19.6562 7.125C19.875 6.8125 20 6.4375 20 6C20 5.59375 19.875 5.21875 19.6562 4.90625C19.5625 4.78125 19.5 4.6875 19.4062 4.59375C19.3125 4.5 19.2188 4.4375 19.0938 4.34375C18.7812 4.125 18.4062 4 18 4C17.5625 4 17.1875 4.125 16.875 4.34375C16.6562 4.5 16.4688 4.6875 16.3125 4.90625C16.125 5.21875 16 5.59375 16 6C16 7.125 16.875 8 18 8ZM18 5C18.5312 5 19 5.46875 19 6C19 6.5625 18.5312 7 18 7C17.4375 7 17 6.5625 17 6C17 5.46875 17.4375 5 18 5ZM3.09375 9.84375C2.78125 9.625 2.40625 9.5 2 9.5C1.5625 9.5 1.1875 9.625 0.875 9.84375C0.65625 10 0.46875 10.1875 0.3125 10.4062C0.125 10.7188 0 11.0938 0 11.5C0 12.625 0.875 13.5 2 13.5C3.09375 13.5 4 12.625 4 11.5C4 11.0938 3.875 10.7188 3.65625 10.4062C3.5 10.1875 3.3125 10 3.09375 9.84375ZM2 12.5C1.4375 12.5 1 12.0625 1 11.5C1 10.9688 1.4375 10.5 2 10.5C2.53125 10.5 3 10.9688 3 11.5C3 12.0625 2.53125 12.5 2 12.5ZM4.75 12H6.25V11H4.75V12ZM19.4062 14.5938C19.3125 14.5 19.2188 14.4375 19.0938 14.3438C18.7812 14.125 18.4062 14 18 14C17.5625 14 17.1875 14.125 16.875 14.3438C16.75 14.4375 16.6562 14.5 16.5938 14.5938L13.7188 12.875C13.875 12.4375 14 12 14 11.5C14 9.59375 12.4062 8 10.5 8C10.125 8 9.8125 8.09375 9.46875 8.1875L8.25 5.5625C8.6875 5.1875 9 4.625 9 4C9 3.59375 8.875 3.21875 8.65625 2.90625C8.5 2.6875 8.3125 2.5 8.09375 2.34375C7.78125 2.125 7.40625 2 7 2C6.5625 2 6.1875 2.125 5.875 2.34375C5.65625 2.5 5.46875 2.6875 5.3125 2.90625C5.125 3.21875 5 3.59375 5 4C5 5.125 5.875 6 7 6C7.125 6 7.21875 6 7.34375 5.96875L8.5625 8.59375C7.625 9.21875 7 10.2812 7 11.5C7 13.4375 8.5625 15 10.5 15C11.5938 15 12.5312 14.5 13.1875 13.7188L16.0625 15.4375C16.0312 15.625 16 15.8125 16 16C16 17.125 16.875 18 18 18C18.4062 18 18.7812 17.875 19.0938 17.6875C19.3125 17.5312 19.5 17.3438 19.6562 17.125C19.875 16.8125 20 16.4375 20 16C20 15.5938 19.875 15.2188 19.6562 14.9062C19.5625 14.7812 19.5 14.6875 19.4062 14.5938ZM7 5C6.4375 5 6 4.5625 6 4C6 3.46875 6.4375 3 7 3C7.53125 3 8 3.46875 8 4C8 4.5625 7.53125 5 7 5ZM10.5 14C9.09375 14 8 12.9062 8 11.5C8 10.125 9.09375 9 10.5 9C11.875 9 13 10.125 13 11.5C13 12.9062 11.875 14 10.5 14ZM18 17C17.4375 17 17 16.5625 17 16C17 15.4688 17.4375 15 18 15C18.5312 15 19 15.4688 19 16C19 16.5625 18.5312 17 18 17Z" fill="#F8CD30"/>
</svg>

