<svg width="18" height="16" viewBox="0 0 18 16" fill="none" xmlns="http://www.w3.org/2000/svg">
<path d="M16.9688 9H9.5625L14.5 13.9688C14.5938 14.0312 14.75 14.0938 14.875 14.0938C14.9688 14.0938 15.0938 14.0625 15.1875 13.9688C16.4062 12.8438 17.25 11.3125 17.4688 9.5625C17.5312 9.28125 17.2812 9 16.9688 9ZM14.8438 12.9062L11.9688 10H16.375C16.125 11.0938 15.5938 12.0625 14.8438 12.9062ZM7.5 9V1.59375C7.5 1.3125 7.25 1.09375 7 1.09375C6.96875 1.09375 6.9375 1.09375 6.9375 1.09375C3.1875 1.625 0.34375 4.875 0.5 8.78125C0.625 12.75 4.03125 16 8 16C8.03125 16 8.0625 16 8.09375 16C9.65625 16 11.125 15.5 12.3125 14.625C12.5625 14.4688 12.5625 14.0938 12.3438 13.875L7.5 9ZM8.0625 15H8C4.59375 15 1.59375 12.1562 1.5 8.75C1.375 5.625 3.5 2.90625 6.5 2.1875V9.4375L6.78125 9.71875L11.2188 14.1562C10.25 14.7188 9.1875 15 8.0625 15ZM16.4688 7C16.2188 3.25 13.25 0.28125 9.5 0.03125C9.5 0.03125 9.5 0 9.46875 0C9.21875 0 9 0.25 9 0.53125V7.5H15.9688C16.25 7.5 16.5 7.28125 16.4688 7ZM10 6.5V1.0625C12.7812 1.5 15 3.71875 15.4375 6.5H10Z" fill="white"/>
</svg>

