<svg width="20" height="20" viewBox="0 0 20 20" fill="none" xmlns="http://www.w3.org/2000/svg">
<path d="M18.5 2H15.5C14.6562 2 14 2.6875 14 3.5V4.5H6V3.5C6 2.6875 5.3125 2 4.5 2H1.5C0.65625 2 0 2.6875 0 3.5V6.5C0 7.34375 0.65625 8 1.5 8H4.4375L7.21875 12.7188C7.0625 12.9375 6.96875 13.2188 6.96875 13.5V16.5C6.96875 17.3438 7.65625 18 8.46875 18H11.4688C12.3125 18 12.9688 17.3438 12.9688 16.5V13.5C12.9688 12.6875 12.3125 12 11.4688 12H8.46875C8.3125 12 8.15625 12.0625 8.03125 12.0938L5.40625 7.6875C5.75 7.40625 6 7 6 6.5V5.5H14V6.5C14 7.34375 14.6562 8 15.5 8H18.5C19.3125 8 20 7.34375 20 6.5V3.5C20 2.6875 19.3125 2 18.5 2ZM1 6.5V3.5C1 3.25 1.21875 3 1.5 3H4.5C4.75 3 5 3.25 5 3.5V6.5C5 6.78125 4.75 7 4.5 7H1.5C1.21875 7 1 6.78125 1 6.5ZM11.5 13C11.75 13 12 13.25 12 13.5V16.5C12 16.7812 11.75 17 11.5 17H8.5C8.21875 17 8 16.7812 8 16.5V13.5C8 13.25 8.21875 13 8.5 13H11.5ZM19 6.5C19 6.78125 18.75 7 18.5 7H15.5C15.2188 7 15 6.78125 15 6.5V3.5C15 3.25 15.2188 3 15.5 3H18.5C18.75 3 19 3.25 19 3.5V6.5Z" fill="white"/>
</svg>

