<svg width="20" height="20" viewBox="0 0 20 20" fill="none" xmlns="http://www.w3.org/2000/svg">
<path d="M15.5312 5.0625L12.9375 2.46875C12.6562 2.1875 12.25 2 11.875 2H5.46875C4.65625 2.03125 4 2.6875 4 3.53125V16.5312C4 17.3438 4.65625 18 5.46875 18H14.5C15.3125 18 16 17.3438 16 16.5312V6.125C16 5.75 15.8125 5.34375 15.5312 5.0625ZM12 3.03125C12.0625 3.0625 12.1562 3.09375 12.2188 3.15625L14.8438 5.78125C14.9062 5.84375 14.9375 5.9375 14.9688 6.03125H12V3.03125ZM15 16.5312C15 16.7812 14.75 17.0312 14.5 17.0312H5.46875C5.21875 17.0312 4.96875 16.7812 4.96875 16.5312V3.53125C4.96875 3.25 5.21875 3 5.46875 3H11V6.28125C11 6.6875 11.3125 7 11.75 7H15V16.5312ZM7.75 10H7.5C6.65625 10 6 10.6875 6 11.5V12.5C6 13.3438 6.65625 14 7.5 14H7.75C7.875 14 8 13.9062 8 13.75V13.25C8 13.125 7.875 13 7.75 13H7.5C7.21875 13 7 12.7812 7 12.5V11.5C7 11.25 7.21875 11 7.5 11H7.75C7.875 11 8 10.9062 8 10.75V10.25C8 10.125 7.875 10 7.75 10ZM11.25 10C11.0938 10 11 10.125 11 10.25V10.9062C11 12.0312 11.375 13.0625 12.125 13.8438C12.2188 13.9688 12.3438 14 12.5 14C12.625 14 12.75 13.9688 12.8438 13.8438C13.5938 13.0625 14 12.0312 14 10.9062V10.25C14 10.125 13.875 10 13.75 10H13.25C13.0938 10 13 10.125 13 10.25V10.9062C13 11.5625 12.8125 12.1562 12.5 12.6875C12.1562 12.1562 12 11.5625 12 10.9062V10.25C12 10.125 11.875 10 11.75 10H11.25ZM9.59375 11.3438C9.5625 11.3125 9.53125 11.25 9.53125 11.2188C9.53125 11.125 9.65625 11.0312 9.84375 11.0312H10.25C10.375 11.0312 10.5 10.9062 10.5 10.7812V10.2812C10.5 10.125 10.375 10.0312 10.25 10.0312H9.84375C9.125 10.0312 8.53125 10.5625 8.53125 11.2188C8.53125 11.5625 8.6875 11.875 8.9375 12.0938L9.625 12.6875C9.65625 12.7188 9.6875 12.7812 9.6875 12.8125C9.6875 12.9062 9.5625 13 9.375 13H9C8.84375 13 8.75 13.125 8.75 13.25V13.75C8.75 13.9062 8.84375 14 9 14H9.375C10.0938 14 10.6875 13.4688 10.6875 12.8125C10.6875 12.4688 10.5312 12.1562 10.2812 11.9375L9.59375 11.3438Z" fill="white"/>
</svg>

