<svg width="20" height="20" viewBox="0 0 20 20" fill="none" xmlns="http://www.w3.org/2000/svg">
<path d="M14.9062 16.875C15.0625 17.0312 15.2812 17.0312 15.4375 16.875L15.6562 16.6562C15.8125 16.5 15.8125 16.2812 15.6562 16.125L9.5625 10L15.6562 3.90625C15.8125 3.75 15.8125 3.53125 15.6562 3.375L15.4375 3.15625C15.2812 3 15.0625 3 14.9062 3.15625L8.3125 9.75C8.15625 9.90625 8.15625 10.125 8.3125 10.2812L14.9062 16.875ZM11.4375 16.875L11.6562 16.6562C11.8125 16.5 11.8125 16.2812 11.6562 16.125L5.5625 10L11.6562 3.90625C11.8125 3.75 11.8125 3.53125 11.6562 3.375L11.4375 3.15625C11.2812 3 11.0625 3 10.9062 3.15625L4.3125 9.75C4.15625 9.90625 4.15625 10.125 4.3125 10.2812L10.9062 16.875C11.0625 17.0312 11.2812 17.0312 11.4375 16.875Z" fill="white"/>
</svg>

