<svg width="20" height="21" viewBox="0 0 20 21" fill="none" xmlns="http://www.w3.org/2000/svg">
<path d="M10 19.25C9.29688 19.25 8.75 18.7031 8.75 18H7.5C7.5 19.4062 8.59375 20.5 10 20.5C11.3672 20.5 12.5 19.4062 12.5 18H11.25C11.25 18.7031 10.6641 19.25 10 19.25ZM18.1641 13.5859C17.0703 12.5703 16.25 11.4766 16.25 7.76562C16.25 4.67969 13.75 2.14062 10.625 1.82812V1.125C10.625 0.8125 10.3125 0.5 10 0.5C9.64844 0.5 9.375 0.8125 9.375 1.125V1.82812C6.21094 2.14062 3.71094 4.67969 3.71094 7.76562C3.71094 11.4766 2.89062 12.5703 1.79688 13.5859C1.25 14.1328 1.09375 14.9141 1.36719 15.6172C1.64062 16.3203 2.34375 16.75 3.125 16.75H16.875C17.6172 16.75 18.3203 16.3203 18.5938 15.6172C18.8672 14.9141 18.7109 14.1328 18.1641 13.5859ZM16.875 15.5H3.125C2.53906 15.5 2.26562 14.875 2.65625 14.4844C4.02344 13.1953 4.96094 11.75 4.96094 7.76562C4.96094 5.14844 7.22656 3 10 3C12.7344 3 15 5.14844 15 7.76562C15 11.75 15.9375 13.1953 17.3047 14.4844C17.6953 14.875 17.4219 15.5 16.875 15.5Z" fill="white"/>
</svg>

