<svg width="22" height="20" viewBox="0 0 22 20" fill="none" xmlns="http://www.w3.org/2000/svg">
<path d="M20.375 2.5H16.625C15.9688 2.5 15.5 3.01562 15.5 3.625V7.375C15.5 8.03125 15.9688 8.5 16.625 8.5H20.375C20.9844 8.5 21.5 8.03125 21.5 7.375V3.625C21.5 3.01562 20.9844 2.5 20.375 2.5ZM20 7H17V4H20V7ZM12.875 2.5H9.125C8.46875 2.5 8 3.01562 8 3.625V7.375C8 8.03125 8.46875 8.5 9.125 8.5H12.875C13.4844 8.5 14 8.03125 14 7.375V3.625C14 3.01562 13.4844 2.5 12.875 2.5ZM12.5 7H9.5V4H12.5V7ZM5.375 2.5H1.625C0.96875 2.5 0.5 3.01562 0.5 3.625V7.375C0.5 8.03125 0.96875 8.5 1.625 8.5H5.375C5.98438 8.5 6.5 8.03125 6.5 7.375V3.625C6.5 3.01562 5.98438 2.5 5.375 2.5ZM5 7H2V4H5V7ZM20.375 11.5H16.625C15.9688 11.5 15.5 12.0156 15.5 12.625V16.375C15.5 17.0312 15.9688 17.5 16.625 17.5H20.375C20.9844 17.5 21.5 17.0312 21.5 16.375V12.625C21.5 12.0156 20.9844 11.5 20.375 11.5ZM20 16H17V13H20V16ZM12.875 11.5H9.125C8.46875 11.5 8 12.0156 8 12.625V16.375C8 17.0312 8.46875 17.5 9.125 17.5H12.875C13.4844 17.5 14 17.0312 14 16.375V12.625C14 12.0156 13.4844 11.5 12.875 11.5ZM12.5 16H9.5V13H12.5V16ZM5.375 11.5H1.625C0.96875 11.5 0.5 12.0156 0.5 12.625V16.375C0.5 17.0312 0.96875 17.5 1.625 17.5H5.375C5.98438 17.5 6.5 17.0312 6.5 16.375V12.625C6.5 12.0156 5.98438 11.5 5.375 11.5ZM5 16H2V13H5V16Z" fill="#F8CD30"/>
</svg>

