<svg width="24" height="22" viewBox="0 0 24 22" fill="none" xmlns="http://www.w3.org/2000/svg">
<path d="M21.75 2C22.125 2 22.5 2.375 22.5 2.75V19.25C22.5 19.6719 22.125 20 21.75 20H2.25C1.82812 20 1.5 19.6719 1.5 19.25V2.75C1.5 2.375 1.82812 2 2.25 2H21.75ZM21.75 0.5H2.25C0.984375 0.5 0 1.53125 0 2.75V19.25C0 20.5156 0.984375 21.5 2.25 21.5H21.75C22.9688 21.5 24 20.5156 24 19.25V2.75C24 1.53125 22.9688 0.5 21.75 0.5ZM6 5C5.15625 5 4.5 5.70312 4.5 6.5C4.5 7.34375 5.15625 8 6 8C6.79688 8 7.5 7.34375 7.5 6.5C7.5 5.70312 6.79688 5 6 5ZM6 9.5C5.15625 9.5 4.5 10.2031 4.5 11C4.5 11.8438 5.15625 12.5 6 12.5C6.79688 12.5 7.5 11.8438 7.5 11C7.5 10.2031 6.79688 9.5 6 9.5ZM6 14C5.15625 14 4.5 14.7031 4.5 15.5C4.5 16.3438 5.15625 17 6 17C6.79688 17 7.5 16.3438 7.5 15.5C7.5 14.7031 6.79688 14 6 14ZM19.5 7.0625V5.9375C19.5 5.79688 19.3594 5.65625 19.2188 5.65625H9.28125C9.09375 5.65625 9 5.79688 9 5.9375V7.0625C9 7.25 9.09375 7.34375 9.28125 7.34375H19.2188C19.3594 7.34375 19.5 7.25 19.5 7.0625ZM19.5 11.5625V10.4375C19.5 10.2969 19.3594 10.1562 19.2188 10.1562H9.28125C9.09375 10.1562 9 10.2969 9 10.4375V11.5625C9 11.75 9.09375 11.8438 9.28125 11.8438H19.2188C19.3594 11.8438 19.5 11.75 19.5 11.5625ZM19.5 16.0625V14.9375C19.5 14.7969 19.3594 14.6562 19.2188 14.6562H9.28125C9.09375 14.6562 9 14.7969 9 14.9375V16.0625C9 16.25 9.09375 16.3438 9.28125 16.3438H19.2188C19.3594 16.3438 19.5 16.25 19.5 16.0625Z" fill="#EAEAEA"/>
</svg>

