<svg width="20" height="21" viewBox="0 0 20 21" fill="none" xmlns="http://www.w3.org/2000/svg">
<path d="M19.8438 19.3281L14.8047 14.2891C14.7266 14.2109 14.6094 14.1719 14.4922 14.1719H14.0625C15.4297 12.6875 16.25 10.7734 16.25 8.625C16.25 4.17188 12.5781 0.5 8.125 0.5C3.63281 0.5 0 4.17188 0 8.625C0 13.1172 3.63281 16.75 8.125 16.75C10.2344 16.75 12.1875 15.9297 13.6328 14.6016V14.9922C13.6328 15.1484 13.6719 15.2656 13.75 15.3438L18.7891 20.3828C18.9844 20.5781 19.2578 20.5781 19.4531 20.3828L19.8438 19.9922C20.0391 19.7969 20.0391 19.5234 19.8438 19.3281ZM8.125 15.5C4.29688 15.5 1.25 12.4531 1.25 8.625C1.25 4.83594 4.29688 1.75 8.125 1.75C11.9141 1.75 15 4.83594 15 8.625C15 12.4531 11.9141 15.5 8.125 15.5Z" fill="white"/>
</svg>

