<svg width="40" height="40" viewBox="0 0 24 22" fill="none" xmlns="http://www.w3.org/2000/svg">
<path d="M18.9375 8H15V5.5625C15 5.28125 14.7188 5 14.4375 5H5.0625C4.73438 5 4.5 5.28125 4.5 5.5625V13.4375C4.5 13.7656 4.73438 14 5.0625 14H9V16.4375C9 16.7656 9.23438 17 9.5625 17H18.9375C19.2188 17 19.5 16.7656 19.5 16.4375V8.5625C19.5 8.28125 19.2188 8 18.9375 8ZM6 12.5V6.5H13.5V12.5H6ZM18 15.5H10.5V14H14.4375C14.7188 14 15 13.7656 15 13.4375V9.5H18V15.5ZM23.4375 5C23.7188 5 24 4.76562 24 4.4375V1.0625C24 0.78125 23.7188 0.5 23.4375 0.5H20.0625C19.7344 0.5 19.5 0.78125 19.5 1.0625V2H4.5V1.0625C4.5 0.78125 4.21875 0.5 3.9375 0.5H0.5625C0.234375 0.5 0 0.78125 0 1.0625V4.4375C0 4.76562 0.234375 5 0.5625 5H1.5V17H0.5625C0.234375 17 0 17.2812 0 17.5625V20.9375C0 21.2656 0.234375 21.5 0.5625 21.5H3.9375C4.21875 21.5 4.5 21.2656 4.5 20.9375V20H19.5V20.9375C19.5 21.2656 19.7344 21.5 20.0625 21.5H23.4375C23.7188 21.5 24 21.2656 24 20.9375V17.5625C24 17.2812 23.7188 17 23.4375 17H22.5V5H23.4375ZM1.5 2H3V3.5H1.5V2ZM3 20H1.5V18.5H3V20ZM19.5 17.5625V18.5H4.5V17.5625C4.5 17.2812 4.21875 17 3.9375 17H3V5H3.9375C4.21875 5 4.5 4.76562 4.5 4.4375V3.5H19.5V4.4375C19.5 4.76562 19.7344 5 20.0625 5H21V17H20.0625C19.7344 17 19.5 17.2812 19.5 17.5625ZM22.5 20H21V18.5H22.5V20ZM21 3.5V2H22.5V3.5H21Z" fill="currentColor"/>
</svg>

