<svg width="64" height="64" viewBox="0 0 64 64" fill="none" xmlns="http://www.w3.org/2000/svg">
<g filter="url(#filter0_d)">
<rect x="2" width="60" height="60" rx="2" fill="white"/>
<rect x="2.5" y="0.5" width="59" height="59" rx="1.5" stroke="#EAEAEA"/>
</g>
<path d="M40.25 17C40.625 17 41 17.375 41 17.75V34.25C41 34.6719 40.625 35 40.25 35H23.75C23.3281 35 23 34.6719 23 34.25V17.75C23 17.375 23.3281 17 23.75 17H40.25ZM40.25 15.5H23.75C22.4844 15.5 21.5 16.5312 21.5 17.75V34.25C21.5 35.5156 22.4844 36.5 23.75 36.5H40.25C41.4688 36.5 42.5 35.5156 42.5 34.25V17.75C42.5 16.5312 41.4688 15.5 40.25 15.5ZM37.4375 25.1562H32.8438V20.5625C32.8438 20.2812 32.5625 20 32.2812 20H31.7188C31.3906 20 31.1562 20.2812 31.1562 20.5625V25.1562H26.5625C26.2344 25.1562 26 25.4375 26 25.7188V26.2812C26 26.6094 26.2344 26.8438 26.5625 26.8438H31.1562V31.4375C31.1562 31.7656 31.3906 32 31.7188 32H32.2812C32.5625 32 32.8438 31.7656 32.8438 31.4375V26.8438H37.4375C37.7188 26.8438 38 26.6094 38 26.2812V25.7188C38 25.4375 37.7188 25.1562 37.4375 25.1562Z" fill="#363636"/>
<path d="M18.2858 55.09C17.7992 55.09 17.3792 54.9867 17.0258 54.78C16.6725 54.5667 16.3992 54.27 16.2058 53.89C16.0192 53.5033 15.9258 53.0533 15.9258 52.54C15.9258 51.7667 16.1358 51.16 16.5558 50.72C16.9758 50.2733 17.5525 50.05 18.2858 50.05C18.5858 50.05 18.8825 50.1033 19.1758 50.21C19.4692 50.3167 19.7125 50.4667 19.9058 50.66L19.6258 51.25C19.4325 51.0633 19.2192 50.9267 18.9858 50.84C18.7592 50.7533 18.5425 50.71 18.3358 50.71C17.8292 50.71 17.4392 50.87 17.1658 51.19C16.8925 51.5033 16.7558 51.9567 16.7558 52.55C16.7558 53.13 16.8925 53.59 17.1658 53.93C17.4392 54.2633 17.8292 54.43 18.3358 54.43C18.5425 54.43 18.7592 54.3867 18.9858 54.3C19.2192 54.2133 19.4325 54.0733 19.6258 53.88L19.9058 54.47C19.7125 54.6633 19.4658 54.8167 19.1658 54.93C18.8725 55.0367 18.5792 55.09 18.2858 55.09ZM22.6747 55.09C21.5081 55.09 20.9247 54.4467 20.9247 53.16V50.14H21.7347V53.15C21.7347 53.5833 21.8214 53.9033 21.9947 54.11C22.1747 54.3167 22.4547 54.42 22.8347 54.42C23.2481 54.42 23.5847 54.2833 23.8447 54.01C24.1047 53.73 24.2347 53.36 24.2347 52.9V50.14H25.0447V55H24.2547V54.18C24.1014 54.4733 23.8847 54.7 23.6047 54.86C23.3314 55.0133 23.0214 55.09 22.6747 55.09ZM28.3002 55.09C27.9202 55.09 27.5602 55.0367 27.2202 54.93C26.8802 54.8233 26.6002 54.6733 26.3802 54.48L26.6402 53.91C26.8802 54.1033 27.1435 54.2467 27.4302 54.34C27.7235 54.4267 28.0202 54.47 28.3202 54.47C28.7002 54.47 28.9869 54.4 29.1802 54.26C29.3735 54.12 29.4702 53.93 29.4702 53.69C29.4702 53.5033 29.4069 53.3567 29.2802 53.25C29.1535 53.1367 28.9535 53.05 28.6802 52.99L27.7702 52.79C26.9435 52.61 26.5302 52.1833 26.5302 51.51C26.5302 51.07 26.7035 50.7167 27.0502 50.45C27.4035 50.1833 27.8635 50.05 28.4302 50.05C28.7635 50.05 29.0802 50.1033 29.3802 50.21C29.6869 50.31 29.9402 50.46 30.1402 50.66L29.8702 51.23C29.6769 51.05 29.4502 50.9133 29.1902 50.82C28.9369 50.72 28.6835 50.67 28.4302 50.67C28.0569 50.67 27.7735 50.7433 27.5802 50.89C27.3869 51.0367 27.2902 51.23 27.2902 51.47C27.2902 51.8433 27.5369 52.0833 28.0302 52.19L28.9402 52.38C29.3669 52.4733 29.6902 52.6233 29.9102 52.83C30.1302 53.03 30.2402 53.3033 30.2402 53.65C30.2402 54.0967 30.0635 54.45 29.7102 54.71C29.3569 54.9633 28.8869 55.09 28.3002 55.09ZM33.4758 55.09C32.9025 55.09 32.4725 54.94 32.1858 54.64C31.8992 54.3333 31.7558 53.8933 31.7558 53.32V50.77H30.8058V50.14H31.7558V48.65H32.5658V50.14H34.1058V50.77H32.5658V53.24C32.5658 53.62 32.6458 53.91 32.8058 54.11C32.9658 54.3033 33.2258 54.4 33.5858 54.4C33.6925 54.4 33.7992 54.3867 33.9058 54.36C34.0125 54.3333 34.1092 54.3067 34.1958 54.28L34.3358 54.9C34.2492 54.9467 34.1225 54.99 33.9558 55.03C33.7892 55.07 33.6292 55.09 33.4758 55.09ZM37.0931 55.09C36.6198 55.09 36.2098 54.9867 35.8631 54.78C35.5164 54.5733 35.2464 54.2833 35.0531 53.91C34.8664 53.53 34.7731 53.0833 34.7731 52.57C34.7731 52.0567 34.8664 51.6133 35.0531 51.24C35.2464 50.86 35.5164 50.5667 35.8631 50.36C36.2098 50.1533 36.6198 50.05 37.0931 50.05C37.5598 50.05 37.9664 50.1533 38.3131 50.36C38.6664 50.5667 38.9364 50.86 39.1231 51.24C39.3164 51.6133 39.4131 52.0567 39.4131 52.57C39.4131 53.0833 39.3164 53.53 39.1231 53.91C38.9364 54.2833 38.6664 54.5733 38.3131 54.78C37.9664 54.9867 37.5598 55.09 37.0931 55.09ZM37.0931 54.44C37.5464 54.44 37.9098 54.28 38.1831 53.96C38.4564 53.6333 38.5931 53.17 38.5931 52.57C38.5931 51.9633 38.4564 51.5 38.1831 51.18C37.9098 50.86 37.5464 50.7 37.0931 50.7C36.6331 50.7 36.2664 50.86 35.9931 51.18C35.7264 51.5 35.5931 51.9633 35.5931 52.57C35.5931 53.17 35.7264 53.6333 35.9931 53.96C36.2664 54.28 36.6331 54.44 37.0931 54.44ZM40.7497 55V50.14H41.5397V50.96C41.6864 50.6667 41.8897 50.4433 42.1497 50.29C42.4097 50.13 42.7131 50.05 43.0597 50.05C43.8197 50.05 44.3064 50.38 44.5197 51.04C44.6664 50.7333 44.8831 50.4933 45.1697 50.32C45.4564 50.14 45.7864 50.05 46.1597 50.05C47.2397 50.05 47.7797 50.69 47.7797 51.97V55H46.9697V52.01C46.9697 51.5633 46.8897 51.2367 46.7297 51.03C46.5764 50.8167 46.3197 50.71 45.9597 50.71C45.5664 50.71 45.2531 50.85 45.0197 51.13C44.7864 51.41 44.6697 51.7833 44.6697 52.25V55H43.8597V52.01C43.8597 51.5633 43.7797 51.2367 43.6197 51.03C43.4664 50.8167 43.2097 50.71 42.8497 50.71C42.4497 50.71 42.1331 50.85 41.8997 51.13C41.6731 51.41 41.5597 51.7833 41.5597 52.25V55H40.7497Z" fill="#363636"/>
<defs>
<filter id="filter0_d" x="0" y="0" width="64" height="64" filterUnits="userSpaceOnUse" color-interpolation-filters="sRGB">
<feFlood flood-opacity="0" result="BackgroundImageFix"/>
<feColorMatrix in="SourceAlpha" type="matrix" values="0 0 0 0 0 0 0 0 0 0 0 0 0 0 0 0 0 0 127 0"/>
<feOffset dy="2"/>
<feGaussianBlur stdDeviation="1"/>
<feColorMatrix type="matrix" values="0 0 0 0 0 0 0 0 0 0 0 0 0 0 0 0 0 0 0.25 0"/>
<feBlend mode="normal" in2="BackgroundImageFix" result="effect1_dropShadow"/>
<feBlend mode="normal" in="SourceGraphic" in2="effect1_dropShadow" result="shape"/>
</filter>
</defs>
</svg>

