<svg width="64" height="64" viewBox="0 0 64 64" fill="none" xmlns="http://www.w3.org/2000/svg">
<g filter="url(#filter0_d)">
<rect x="2" width="60" height="60" rx="2" fill="white"/>
<rect x="2.5" y="0.5" width="59" height="59" rx="1.5" stroke="#EAEAEA"/>
</g>
<path d="M31.4375 19.0156L30.875 18.5938C30.6875 18.4531 30.4531 18.5 30.3125 18.6875C28.4844 21.3594 27.4531 24.4062 27.4531 27.5C27.4531 30.6406 28.4844 33.6875 30.3125 36.3594C30.4531 36.5469 30.6875 36.5938 30.875 36.4531L31.4375 36.0312C31.625 35.8906 31.6719 35.7031 31.5312 35.5156C29.8438 33.125 28.9531 30.3594 28.9531 27.5C28.9531 24.6875 29.8438 21.9219 31.5312 19.5312C31.6719 19.3438 31.625 19.1562 31.4375 19.0156ZM27.5 15.875C27.5 15.6875 27.3125 15.5 27.125 15.5H24.5C22.3906 15.5 20.75 17.1875 20.75 19.25V23H17.375C17.1406 23 17 23.1875 17 23.375V24.125C17 24.3594 17.1406 24.5 17.375 24.5H20.75V31.25C20.75 32.5156 19.7188 33.5 18.5 33.5H17.375C17.1406 33.5 17 33.6875 17 33.875V34.625C17 34.8594 17.1406 35 17.375 35H18.5C20.5625 35 22.25 33.3594 22.25 31.25V24.5H25.625C25.8125 24.5 26 24.3594 26 24.125V23.375C26 23.1875 25.8125 23 25.625 23H22.25V19.25C22.25 18.0312 23.2344 17 24.5 17H27.125C27.3125 17 27.5 16.8594 27.5 16.625V15.875ZM44.1406 18.6875C44 18.5 43.7656 18.4531 43.5781 18.5938L43.0156 19.0156C42.8281 19.1562 42.7812 19.3438 42.9219 19.5312C44.6094 21.9219 45.5 24.6875 45.5 27.5C45.5 30.3594 44.6094 33.125 42.9219 35.5156C42.8281 35.7031 42.8281 35.8906 43.0156 36.0312L43.5781 36.4531C43.7656 36.5938 44 36.5469 44.1406 36.3594C45.9688 33.6875 47 30.6406 47 27.5C47 24.4062 45.9688 21.3594 44.1406 18.6875ZM40.8594 24.4062L40.3438 23.8906C40.2031 23.75 39.9688 23.75 39.8281 23.8906L37.25 26.4688L34.6719 23.8906C34.5312 23.75 34.25 23.75 34.1094 23.8906L33.5938 24.4062C33.4531 24.5469 33.4531 24.7812 33.5938 24.9219L36.1719 27.5L33.5938 30.0781C33.4531 30.2188 33.4531 30.5 33.5938 30.6406L34.1094 31.1562C34.25 31.2969 34.5312 31.2969 34.6719 31.1562L37.25 28.5781L39.8281 31.1562C39.9688 31.2969 40.2031 31.2969 40.3438 31.1562L40.8594 30.6406C41 30.5 41 30.2188 40.8594 30.0781L38.2812 27.5L40.8594 24.9219C41 24.7812 41 24.5469 40.8594 24.4062Z" fill="#363636"/>
<path d="M14.5157 55V50.77H13.5557V50.14H14.5157V49.97C14.5157 49.3233 14.6757 48.8333 14.9957 48.5C15.3224 48.1667 15.8224 47.98 16.4957 47.94L16.8857 47.92L16.9557 48.54L16.4957 48.57C16.0824 48.6033 15.7824 48.7267 15.5957 48.94C15.4157 49.1533 15.3257 49.4633 15.3257 49.87V50.14H16.7257V50.77H15.3257V55H14.5157ZM19.4058 55.09C18.2391 55.09 17.6558 54.4467 17.6558 53.16V50.14H18.4658V53.15C18.4658 53.5833 18.5524 53.9033 18.7258 54.11C18.9058 54.3167 19.1858 54.42 19.5658 54.42C19.9791 54.42 20.3158 54.2833 20.5758 54.01C20.8358 53.73 20.9658 53.36 20.9658 52.9V50.14H21.7758V55H20.9858V54.18C20.8324 54.4733 20.6158 54.7 20.3358 54.86C20.0624 55.0133 19.7524 55.09 19.4058 55.09ZM23.3912 55V50.14H24.1812V50.97C24.3412 50.6633 24.5679 50.4333 24.8612 50.28C25.1546 50.1267 25.4846 50.05 25.8512 50.05C27.0046 50.05 27.5812 50.69 27.5812 51.97V55H26.7712V52.02C26.7712 51.5667 26.6812 51.2367 26.5012 51.03C26.3279 50.8167 26.0479 50.71 25.6612 50.71C25.2146 50.71 24.8579 50.85 24.5912 51.13C24.3312 51.4033 24.2012 51.77 24.2012 52.23V55H23.3912ZM31.2348 55.09C30.7482 55.09 30.3282 54.9867 29.9748 54.78C29.6215 54.5667 29.3482 54.27 29.1548 53.89C28.9682 53.5033 28.8748 53.0533 28.8748 52.54C28.8748 51.7667 29.0848 51.16 29.5048 50.72C29.9248 50.2733 30.5015 50.05 31.2348 50.05C31.5348 50.05 31.8315 50.1033 32.1248 50.21C32.4182 50.3167 32.6615 50.4667 32.8548 50.66L32.5748 51.25C32.3815 51.0633 32.1682 50.9267 31.9348 50.84C31.7082 50.7533 31.4915 50.71 31.2848 50.71C30.7782 50.71 30.3882 50.87 30.1148 51.19C29.8415 51.5033 29.7048 51.9567 29.7048 52.55C29.7048 53.13 29.8415 53.59 30.1148 53.93C30.3882 54.2633 30.7782 54.43 31.2848 54.43C31.4915 54.43 31.7082 54.3867 31.9348 54.3C32.1682 54.2133 32.3815 54.0733 32.5748 53.88L32.8548 54.47C32.6615 54.6633 32.4148 54.8167 32.1148 54.93C31.8215 55.0367 31.5282 55.09 31.2348 55.09ZM35.8537 55.09C35.2804 55.09 34.8504 54.94 34.5637 54.64C34.2771 54.3333 34.1337 53.8933 34.1337 53.32V50.77H33.1837V50.14H34.1337V48.65H34.9437V50.14H36.4837V50.77H34.9437V53.24C34.9437 53.62 35.0237 53.91 35.1837 54.11C35.3437 54.3033 35.6037 54.4 35.9637 54.4C36.0704 54.4 36.1771 54.3867 36.2837 54.36C36.3904 54.3333 36.4871 54.3067 36.5737 54.28L36.7137 54.9C36.6271 54.9467 36.5004 54.99 36.3337 55.03C36.1671 55.07 36.0071 55.09 35.8537 55.09ZM37.3998 48.93V48.02H38.3998V48.93H37.3998ZM37.4998 55V50.14H38.3098V55H37.4998ZM41.9441 55.09C41.4707 55.09 41.0607 54.9867 40.7141 54.78C40.3674 54.5733 40.0974 54.2833 39.9041 53.91C39.7174 53.53 39.6241 53.0833 39.6241 52.57C39.6241 52.0567 39.7174 51.6133 39.9041 51.24C40.0974 50.86 40.3674 50.5667 40.7141 50.36C41.0607 50.1533 41.4707 50.05 41.9441 50.05C42.4107 50.05 42.8174 50.1533 43.1641 50.36C43.5174 50.5667 43.7874 50.86 43.9741 51.24C44.1674 51.6133 44.2641 52.0567 44.2641 52.57C44.2641 53.0833 44.1674 53.53 43.9741 53.91C43.7874 54.2833 43.5174 54.5733 43.1641 54.78C42.8174 54.9867 42.4107 55.09 41.9441 55.09ZM41.9441 54.44C42.3974 54.44 42.7607 54.28 43.0341 53.96C43.3074 53.6333 43.4441 53.17 43.4441 52.57C43.4441 51.9633 43.3074 51.5 43.0341 51.18C42.7607 50.86 42.3974 50.7 41.9441 50.7C41.4841 50.7 41.1174 50.86 40.8441 51.18C40.5774 51.5 40.4441 51.9633 40.4441 52.57C40.4441 53.17 40.5774 53.6333 40.8441 53.96C41.1174 54.28 41.4841 54.44 41.9441 54.44ZM45.5807 55V50.14H46.3707V50.97C46.5307 50.6633 46.7574 50.4333 47.0507 50.28C47.344 50.1267 47.674 50.05 48.0407 50.05C49.194 50.05 49.7707 50.69 49.7707 51.97V55H48.9607V52.02C48.9607 51.5667 48.8707 51.2367 48.6907 51.03C48.5174 50.8167 48.2374 50.71 47.8507 50.71C47.404 50.71 47.0474 50.85 46.7807 51.13C46.5207 51.4033 46.3907 51.77 46.3907 52.23V55H45.5807Z" fill="#363636"/>
<defs>
<filter id="filter0_d" x="0" y="0" width="64" height="64" filterUnits="userSpaceOnUse" color-interpolation-filters="sRGB">
<feFlood flood-opacity="0" result="BackgroundImageFix"/>
<feColorMatrix in="SourceAlpha" type="matrix" values="0 0 0 0 0 0 0 0 0 0 0 0 0 0 0 0 0 0 127 0"/>
<feOffset dy="2"/>
<feGaussianBlur stdDeviation="1"/>
<feColorMatrix type="matrix" values="0 0 0 0 0 0 0 0 0 0 0 0 0 0 0 0 0 0 0.25 0"/>
<feBlend mode="normal" in2="BackgroundImageFix" result="effect1_dropShadow"/>
<feBlend mode="normal" in="SourceGraphic" in2="effect1_dropShadow" result="shape"/>
</filter>
</defs>
</svg>

