<svg width="40" height="40" fill="currentColor" xmlns="http://www.w3.org/2000/svg">
<symbol id="merge" viewBox="0 0 15 24">
  <path d="M14.25 9C12.2812 9 10.6875 10.5 10.5 12.4219C9.32812 12.375 7.59375 12.0469 6.32812 10.9688C5.39062 10.125 4.78125 8.95312 4.59375 7.40625C6.23438 7.03125 7.5 5.53125 7.5 3.79688C7.5 1.6875 5.8125 0.046875 3.75 0.046875C1.64062 0.046875 0 1.6875 0 3.75C0 5.57812 1.26562 7.07812 3 7.45312V16.5938C1.26562 16.9219 0 18.4688 0 20.25C0 22.3594 1.64062 24 3.75 24C5.8125 24 7.5 22.3594 7.5 20.25C7.5 18.4688 6.1875 16.9219 4.5 16.5938V11.1562C4.73438 11.4844 5.01562 11.8125 5.34375 12.0938C7.07812 13.5469 9.23438 13.9219 10.6875 13.9219C11.1562 15.4219 12.5625 16.5 14.25 16.5C16.3125 16.5 18 14.8594 18 12.75C18 10.6875 16.3125 9 14.25 9ZM1.5 3.75C1.5 2.53125 2.48438 1.5 3.75 1.5C4.96875 1.5 6 2.53125 6 3.75C6 5.01562 4.96875 6 3.75 6C2.48438 6 1.5 5.01562 1.5 3.75ZM6 20.25C6 21.5156 4.96875 22.5 3.75 22.5C2.48438 22.5 1.5 21.5156 1.5 20.25C1.5 19.0312 2.48438 18 3.75 18C4.96875 18 6 19.0312 6 20.25ZM14.25 15C12.9844 15 12 14.0156 12 12.75C12 11.5312 12.9844 10.5 14.25 10.5C15.4688 10.5 16.5 11.5312 16.5 12.75C16.5 14.0156 15.4688 15 14.25 15Z" fill="currentColor"/>
</symbol>

<symbol id="function" viewBox="0 0 30 22">
  <path d="M14.4375 4.01562L13.875 3.59375C13.6875 3.45312 13.4531 3.5 13.3125 3.6875C11.4844 6.35938 10.4531 9.40625 10.4531 12.5C10.4531 15.6406 11.4844 18.6875 13.3125 21.3594C13.4531 21.5469 13.6875 21.5938 13.875 21.4531L14.4375 21.0312C14.625 20.8906 14.6719 20.7031 14.5312 20.5156C12.8438 18.125 11.9531 15.3594 11.9531 12.5C11.9531 9.6875 12.8438 6.92188 14.5312 4.53125C14.6719 4.34375 14.625 4.15625 14.4375 4.01562ZM10.5 0.875C10.5 0.6875 10.3125 0.5 10.125 0.5H7.5C5.39062 0.5 3.75 2.1875 3.75 4.25V8H0.375C0.140625 8 0 8.1875 0 8.375V9.125C0 9.35938 0.140625 9.5 0.375 9.5H3.75V16.25C3.75 17.5156 2.71875 18.5 1.5 18.5H0.375C0.140625 18.5 0 18.6875 0 18.875V19.625C0 19.8594 0.140625 20 0.375 20H1.5C3.5625 20 5.25 18.3594 5.25 16.25V9.5H8.625C8.8125 9.5 9 9.35938 9 9.125V8.375C9 8.1875 8.8125 8 8.625 8H5.25V4.25C5.25 3.03125 6.23438 2 7.5 2H10.125C10.3125 2 10.5 1.85938 10.5 1.625V0.875ZM27.1406 3.6875C27 3.5 26.7656 3.45312 26.5781 3.59375L26.0156 4.01562C25.8281 4.15625 25.7812 4.34375 25.9219 4.53125C27.6094 6.92188 28.5 9.6875 28.5 12.5C28.5 15.3594 27.6094 18.125 25.9219 20.5156C25.8281 20.7031 25.8281 20.8906 26.0156 21.0312L26.5781 21.4531C26.7656 21.5938 27 21.5469 27.1406 21.3594C28.9688 18.6875 30 15.6406 30 12.5C30 9.40625 28.9688 6.35938 27.1406 3.6875ZM23.8594 9.40625L23.3438 8.89062C23.2031 8.75 22.9688 8.75 22.8281 8.89062L20.25 11.4688L17.6719 8.89062C17.5312 8.75 17.25 8.75 17.1094 8.89062L16.5938 9.40625C16.4531 9.54688 16.4531 9.78125 16.5938 9.92188L19.1719 12.5L16.5938 15.0781C16.4531 15.2188 16.4531 15.5 16.5938 15.6406L17.1094 16.1562C17.25 16.2969 17.5312 16.2969 17.6719 16.1562L20.25 13.5781L22.8281 16.1562C22.9688 16.2969 23.2031 16.2969 23.3438 16.1562L23.8594 15.6406C24 15.5 24 15.2188 23.8594 15.0781L21.2812 12.5L23.8594 9.92188C24 9.78125 24 9.54688 23.8594 9.40625Z" fill="currentColor"/>
</symbol>

<symbol id="aggregate" viewBox="0 0 24 22">
  <path d="M18.9375 8H15V5.5625C15 5.28125 14.7188 5 14.4375 5H5.0625C4.73438 5 4.5 5.28125 4.5 5.5625V13.4375C4.5 13.7656 4.73438 14 5.0625 14H9V16.4375C9 16.7656 9.23438 17 9.5625 17H18.9375C19.2188 17 19.5 16.7656 19.5 16.4375V8.5625C19.5 8.28125 19.2188 8 18.9375 8ZM6 12.5V6.5H13.5V12.5H6ZM18 15.5H10.5V14H14.4375C14.7188 14 15 13.7656 15 13.4375V9.5H18V15.5ZM23.4375 5C23.7188 5 24 4.76562 24 4.4375V1.0625C24 0.78125 23.7188 0.5 23.4375 0.5H20.0625C19.7344 0.5 19.5 0.78125 19.5 1.0625V2H4.5V1.0625C4.5 0.78125 4.21875 0.5 3.9375 0.5H0.5625C0.234375 0.5 0 0.78125 0 1.0625V4.4375C0 4.76562 0.234375 5 0.5625 5H1.5V17H0.5625C0.234375 17 0 17.2812 0 17.5625V20.9375C0 21.2656 0.234375 21.5 0.5625 21.5H3.9375C4.21875 21.5 4.5 21.2656 4.5 20.9375V20H19.5V20.9375C19.5 21.2656 19.7344 21.5 20.0625 21.5H23.4375C23.7188 21.5 24 21.2656 24 20.9375V17.5625C24 17.2812 23.7188 17 23.4375 17H22.5V5H23.4375ZM1.5 2H3V3.5H1.5V2ZM3 20H1.5V18.5H3V20ZM19.5 17.5625V18.5H4.5V17.5625C4.5 17.2812 4.21875 17 3.9375 17H3V5H3.9375C4.21875 5 4.5 4.76562 4.5 4.4375V3.5H19.5V4.4375C19.5 4.76562 19.7344 5 20.0625 5H21V17H20.0625C19.7344 17 19.5 17.2812 19.5 17.5625ZM22.5 20H21V18.5H22.5V20ZM21 3.5V2H22.5V3.5H21Z" fill="currentColor"/>
</symbol>

<symbol id="custom" viewBox="0 0 22 22">
  <path d="M19.25 2C19.625 2 20 2.375 20 2.75V19.25C20 19.6719 19.625 20 19.25 20H2.75C2.32812 20 2 19.6719 2 19.25V2.75C2 2.375 2.32812 2 2.75 2H19.25ZM19.25 0.5H2.75C1.48438 0.5 0.5 1.53125 0.5 2.75V19.25C0.5 20.5156 1.48438 21.5 2.75 21.5H19.25C20.4688 21.5 21.5 20.5156 21.5 19.25V2.75C21.5 1.53125 20.4688 0.5 19.25 0.5ZM16.4375 10.1562H11.8438V5.5625C11.8438 5.28125 11.5625 5 11.2812 5H10.7188C10.3906 5 10.1562 5.28125 10.1562 5.5625V10.1562H5.5625C5.23438 10.1562 5 10.4375 5 10.7188V11.2812C5 11.6094 5.23438 11.8438 5.5625 11.8438H10.1562V16.4375C10.1562 16.7656 10.3906 17 10.7188 17H11.2812C11.5625 17 11.8438 16.7656 11.8438 16.4375V11.8438H16.4375C16.7188 11.8438 17 11.6094 17 11.2812V10.7188C17 10.4375 16.7188 10.1562 16.4375 10.1562Z" fill="currentColor"/>
</symbol>

<symbol id="filter" viewBox="0 0 25 25">
  <path d="M23.4531 0H2.5C1.14062 0 0.484375 1.64062 1.42188 2.57812L10 11.1562V19.875V19.9219C10 20.2969 10.1875 20.7656 10.4688 21.0469L13.4688 23.6719C14.4531 24.4688 16 23.8125 16 22.5V11.1562L24.5312 2.57812C25.4688 1.64062 24.8125 0 23.4531 0ZM14.5 10.5V22.5L11.5 19.875V10.5L2.5 1.5H23.5L14.5 10.5Z" fill="currentColor"/>
</symbol>

<symbol id="geocode" viewBox="0 0 20 25">
  <path d="M10 0C6.25 0 3.25 3.04688 3.25 6.75C3.25 10.2656 5.875 13.0781 9.25 13.4531V23.1094L9.76562 23.9062C9.85938 24.0469 10.0938 24.0469 10.1875 23.9062L10.75 23.1094V13.4531C14.0781 13.0781 16.75 10.2656 16.75 6.75C16.75 3.04688 13.7031 0 10 0ZM10 12C7.09375 12 4.75 9.65625 4.75 6.75C4.75 3.89062 7.09375 1.5 10 1.5C12.8594 1.5 15.25 3.89062 15.25 6.75C15.25 9.65625 12.8594 12 10 12ZM10 3C7.89062 3 6.25 4.6875 6.25 6.75C6.25 7.17188 6.57812 7.5 7 7.5C7.375 7.5 7.75 7.17188 7.75 6.75C7.75 5.53125 8.73438 4.5 10 4.5C10.375 4.5 10.75 4.17188 10.75 3.75C10.75 3.375 10.375 3 10 3Z" fill="currentColor"/>
</symbol>

<symbol id="graph" viewBox="0 0 28 24">
  <path d="M4.25 16.5H1.25C0.828125 16.5 0.5 16.875 0.5 17.25V23.25C0.5 23.6719 0.828125 24 1.25 24H4.25C4.625 24 5 23.6719 5 23.25V17.25C5 16.875 4.625 16.5 4.25 16.5ZM3.5 22.5H2V18H3.5V22.5ZM26.75 9H23.75C23.3281 9 23 9.375 23 9.75V23.25C23 23.6719 23.3281 24 23.75 24H26.75C27.125 24 27.5 23.6719 27.5 23.25V9.75C27.5 9.375 27.125 9 26.75 9ZM26 22.5H24.5V10.5H26V22.5ZM24.0312 4.17188C24.4062 4.40625 24.7812 4.5 25.25 4.5C26.4688 4.5 27.5 3.51562 27.5 2.25C27.5 1.03125 26.4688 0 25.25 0C23.9844 0 23 1.03125 23 2.25C23 2.53125 23.0469 2.76562 23.0938 3L18.9219 6.375C18.5469 6.14062 18.1719 6 17.75 6C17.2812 6 16.9062 6.14062 16.5312 6.375L12.3594 3C12.4062 2.76562 12.5 2.53125 12.5 2.25C12.5 1.03125 11.4688 0 10.25 0C8.98438 0 8 1.03125 8 2.25C8 2.625 8.04688 2.95312 8.1875 3.23438L3.6875 7.73438C3.40625 7.59375 3.07812 7.5 2.75 7.5C1.48438 7.5 0.5 8.53125 0.5 9.75C0.5 11.0156 1.48438 12 2.75 12C3.96875 12 5 11.0156 5 9.75C5 9.42188 4.90625 9.09375 4.76562 8.8125L9.26562 4.3125C9.54688 4.45312 9.875 4.5 10.25 4.5C10.6719 4.5 11.0469 4.40625 11.4219 4.17188L15.5938 7.54688C15.5469 7.78125 15.5 8.01562 15.5 8.25C15.5 9.51562 16.4844 10.5 17.75 10.5C18.9688 10.5 20 9.51562 20 8.25C20 8.01562 19.9062 7.78125 19.8594 7.54688L24.0312 4.17188ZM25.25 1.5C25.625 1.5 26 1.875 26 2.25C26 2.67188 25.625 3 25.25 3C24.8281 3 24.5 2.67188 24.5 2.25C24.5 1.875 24.8281 1.5 25.25 1.5ZM2.75 10.5C2.32812 10.5 2 10.1719 2 9.75C2 9.375 2.32812 9 2.75 9C3.125 9 3.5 9.375 3.5 9.75C3.5 10.1719 3.125 10.5 2.75 10.5ZM10.25 3C9.82812 3 9.5 2.67188 9.5 2.25C9.5 1.875 9.82812 1.5 10.25 1.5C10.625 1.5 11 1.875 11 2.25C11 2.67188 10.625 3 10.25 3ZM17.75 9C17.3281 9 17 8.67188 17 8.25C17 7.875 17.3281 7.5 17.75 7.5C18.125 7.5 18.5 7.875 18.5 8.25C18.5 8.67188 18.125 9 17.75 9ZM11.75 9H8.75C8.32812 9 8 9.375 8 9.75V23.25C8 23.6719 8.32812 24 8.75 24H11.75C12.125 24 12.5 23.6719 12.5 23.25V9.75C12.5 9.375 12.125 9 11.75 9ZM11 22.5H9.5V10.5H11V22.5ZM19.25 15H16.25C15.8281 15 15.5 15.375 15.5 15.75V23.25C15.5 23.6719 15.8281 24 16.25 24H19.25C19.625 24 20 23.6719 20 23.25V15.75C20 15.375 19.625 15 19.25 15ZM18.5 22.5H17V16.5H18.5V22.5Z" fill="currentColor"/>
</symbol>

<symbol id="api" viewBox="0 0 22 22">
  <path d="M14 9.875C15.4062 9.875 16.625 8.70312 16.625 7.25C16.625 5.84375 15.4062 4.625 14 4.625C12.5469 4.625 11.375 5.84375 11.375 7.25C11.375 7.4375 11.375 7.57812 11.375 7.71875L8.89062 8.98438C8.42188 8.60938 7.85938 8.375 7.25 8.375C5.79688 8.375 4.625 9.59375 4.625 11C4.625 12.4531 5.79688 13.625 7.25 13.625C7.85938 13.625 8.42188 13.4375 8.89062 13.0625L11.375 14.3281C11.375 14.4688 11.375 14.6094 11.375 14.75C11.375 16.2031 12.5469 17.375 14 17.375C15.4062 17.375 16.625 16.2031 16.625 14.75C16.625 13.3438 15.4062 12.125 14 12.125C13.2031 12.125 12.5469 12.4531 12.0781 12.9688L9.73438 11.7969C9.875 11.2812 9.875 10.7656 9.73438 10.25L12.0781 9.07812C12.5469 9.59375 13.2031 9.875 14 9.875ZM14 6.125C14.6094 6.125 15.125 6.64062 15.125 7.25C15.125 7.90625 14.6094 8.375 14 8.375C13.3438 8.375 12.875 7.90625 12.875 7.25C12.875 6.64062 13.3438 6.125 14 6.125ZM7.25 12.125C6.59375 12.125 6.125 11.6562 6.125 11C6.125 10.3906 6.59375 9.875 7.25 9.875C7.85938 9.875 8.375 10.3906 8.375 11C8.375 11.6562 7.85938 12.125 7.25 12.125ZM14 13.625C14.6094 13.625 15.125 14.1406 15.125 14.75C15.125 15.4062 14.6094 15.875 14 15.875C13.3438 15.875 12.875 15.4062 12.875 14.75C12.875 14.1406 13.3438 13.625 14 13.625ZM19.25 0.5H2.75C1.48438 0.5 0.5 1.53125 0.5 2.75V19.25C0.5 20.5156 1.48438 21.5 2.75 21.5H19.25C20.4688 21.5 21.5 20.5156 21.5 19.25V2.75C21.5 1.53125 20.4688 0.5 19.25 0.5ZM20 19.25C20 19.6719 19.625 20 19.25 20H2.75C2.32812 20 2 19.6719 2 19.25V2.75C2 2.375 2.32812 2 2.75 2H19.25C19.625 2 20 2.375 20 2.75V19.25Z" fill="currentColor"/>
</symbol>

<symbol id="csv" viewBox="0 0 20 24">
  <path d="M18.2969 4.59375L14.4062 0.703125C13.9844 0.28125 13.375 0 12.8125 0H3.20312C1.98438 0.046875 1 1.03125 1 2.29688V21.7969C1 23.0156 1.98438 24 3.20312 24H16.75C17.9688 24 19 23.0156 19 21.7969V6.1875C19 5.625 18.7188 5.01562 18.2969 4.59375ZM13 1.54688C13.0938 1.59375 13.2344 1.64062 13.3281 1.73438L17.2656 5.67188C17.3594 5.76562 17.4062 5.90625 17.4531 6.04688H13V1.54688ZM17.5 21.7969C17.5 22.1719 17.125 22.5469 16.75 22.5469H3.20312C2.82812 22.5469 2.45312 22.1719 2.45312 21.7969V2.29688C2.45312 1.875 2.82812 1.5 3.20312 1.5H11.5V6.42188C11.5 7.03125 11.9688 7.5 12.625 7.5H17.5V21.7969ZM6.625 12H6.25C4.98438 12 4 13.0312 4 14.25V15.75C4 17.0156 4.98438 18 6.25 18H6.625C6.8125 18 7 17.8594 7 17.625V16.875C7 16.6875 6.8125 16.5 6.625 16.5H6.25C5.82812 16.5 5.5 16.1719 5.5 15.75V14.25C5.5 13.875 5.82812 13.5 6.25 13.5H6.625C6.8125 13.5 7 13.3594 7 13.125V12.375C7 12.1875 6.8125 12 6.625 12ZM11.875 12C11.6406 12 11.5 12.1875 11.5 12.375V13.3594C11.5 15.0469 12.0625 16.5938 13.1875 17.7656C13.3281 17.9531 13.5156 18 13.75 18C13.9375 18 14.125 17.9531 14.2656 17.7656C15.3906 16.5938 16 15.0469 16 13.3594V12.375C16 12.1875 15.8125 12 15.625 12H14.875C14.6406 12 14.5 12.1875 14.5 12.375V13.3594C14.5 14.3438 14.2188 15.2344 13.75 16.0312C13.2344 15.2344 13 14.3438 13 13.3594V12.375C13 12.1875 12.8125 12 12.625 12H11.875ZM9.39062 14.0156C9.34375 13.9688 9.29688 13.875 9.29688 13.8281C9.29688 13.6875 9.48438 13.5469 9.76562 13.5469H10.375C10.5625 13.5469 10.75 13.3594 10.75 13.1719V12.4219C10.75 12.1875 10.5625 12.0469 10.375 12.0469H9.76562C8.6875 12.0469 7.79688 12.8438 7.79688 13.8281C7.79688 14.3438 8.03125 14.8125 8.40625 15.1406L9.4375 16.0312C9.48438 16.0781 9.53125 16.1719 9.53125 16.2188C9.53125 16.3594 9.34375 16.5 9.0625 16.5H8.5C8.26562 16.5 8.125 16.6875 8.125 16.875V17.625C8.125 17.8594 8.26562 18 8.5 18H9.0625C10.1406 18 11.0312 17.2031 11.0312 16.2188C11.0312 15.7031 10.7969 15.2344 10.4219 14.9062L9.39062 14.0156Z" fill="currentColor"/>
</symbol>

</svg>

